<svg width="160" height="56" viewBox="0 0 160 56" fill="none" xmlns="http://www.w3.org/2000/svg">
<path d="M159.955 18.6084H65.6685V56H159.955V18.6084Z" fill="none"/>
<path d="M57.1298 23.6897V1.3399H69.1806V4.98026H61.2804V10.9184H69.1806V14.526H61.2804V23.6897H57.1298Z" fill="#FFEDDC"/>
<path d="M73.9699 0.35203C75.3425 0.35203 76.3631 1.40539 76.3631 2.71527C76.3631 4.02514 75.3425 5.0785 73.9699 5.0785C72.5972 5.0785 71.5766 4.05789 71.5766 2.71527C71.5766 1.37264 72.63 0.35203 73.9699 0.35203ZM71.9587 23.6897V7.7583H75.9811V23.6897H71.9587Z" fill="#FFEDDC"/>
<path d="M0 23.6897V1.3399H12.0509V4.98026H4.15067V10.9184H12.0509V14.526H4.15067V23.6897H0Z" fill="#FFEDDC"/>
<path d="M16.8401 0.35203C18.2128 0.35203 19.2334 1.40539 19.2334 2.71527C19.2334 4.02514 18.2128 5.0785 16.8401 5.0785C15.4675 5.0785 14.4469 4.05789 14.4469 2.71527C14.4469 1.37264 15.5002 0.35203 16.8401 0.35203ZM14.8289 23.6897V7.7583H18.8513V23.6897H14.8289Z" fill="#FFEDDC"/>
<path d="M20.7697 7.7583H24.8877L29.1666 19.0915L33.4455 7.7583H37.5635L30.954 23.6897H27.3792L20.7697 7.7583Z" fill="#FFEDDC"/>
<path d="M41.5968 17.0803C41.8533 19.4735 43.3842 21.1027 46.225 21.1027C48.1735 21.1027 49.6744 20.2403 50.4385 19.0287H54.1744C53.0882 21.8695 50.0237 24.0745 46.225 24.0745C40.7972 24.0745 37.6371 20.4668 37.6371 15.7103C37.6371 10.9539 41.1165 7.37625 46.034 7.37625C50.9515 7.37625 54.3981 10.8556 54.3981 15.7731V17.083H41.5968V17.0803ZM41.5641 14.4305H50.5667C50.3102 11.9717 48.6838 10.2471 46.0968 10.2471C43.5098 10.2471 41.8833 11.8435 41.5641 14.4305Z" fill="#FFEDDC"/>
<path d="M78.7591 11.0139V7.7583H81.4089V6.03362C81.4089 2.04396 83.2618 0 87.4125 0C88.1793 0 89.1672 0.128259 89.6475 0.286536V3.60762C89.2954 3.47936 88.6269 3.38385 88.0511 3.38385C86.1026 3.38385 85.434 4.18069 85.434 6.12914V7.7583H89.4565V11.0139H85.434V23.6897H81.4116V11.0139H78.7591Z" fill="#FFEDDC"/>
<path d="M96.4452 1.3399V7.7583H100.563V11.0139H96.4452V18.3246C96.4452 19.9838 97.0838 20.7179 98.6474 20.7179C99.3187 20.7179 99.8618 20.5896 100.402 20.4314V23.6569C99.8918 23.848 98.6147 24.0717 97.5913 24.0717C93.8227 24.0717 92.4201 21.804 92.4201 18.1336V11.0139H89.451V7.7583H92.4201V1.3399H96.4452Z" fill="#FFEDDC"/>
<path d="M107.205 23.6897H103.183V1.3399H107.205V10.3426C108.068 8.45963 109.921 7.37352 112.377 7.37352C116.208 7.37352 118.347 10.1843 118.347 14.1412V23.687H114.325V14.8125C114.325 12.5448 113.304 10.8856 110.908 10.8856C108.736 10.8856 107.205 12.4493 107.205 14.7798V23.6897Z" fill="#FFEDDC"/>
<path d="M123.603 18.9332C123.827 20.4013 124.785 21.2637 126.54 21.2637C128.073 21.2637 129.157 20.4969 129.157 19.2197C129.157 18.1991 128.614 17.6561 127.432 17.3368L125.069 16.6982C122.323 15.9969 120.79 14.6543 120.79 12.1C120.79 9.1937 123.281 7.37625 126.441 7.37625C129.858 7.37625 131.774 9.35471 132.093 12.1327H128.676C128.614 11.1421 127.942 10.1843 126.537 10.1843C125.293 10.1843 124.463 10.8556 124.463 11.909C124.463 12.8996 125.039 13.2816 126.188 13.6009L129.028 14.3977C131.583 15.0991 132.827 16.57 132.827 18.8677C132.827 22.0278 129.825 24.0717 126.57 24.0717C123.314 24.0717 120.599 22.5381 120.184 18.9305H123.601L123.603 18.9332Z" fill="#FFEDDC"/>
<path d="M80.8658 48.2854L71.9587 25.9356H76.2049L82.495 42.601L88.7851 25.9356H93.0313L84.1569 48.2854H80.8658Z" fill="#FFEBD9"/>
<path d="M92.0162 40.336C92.0162 35.9943 95.2718 31.9719 100.765 31.9719C106.258 31.9719 109.514 35.9943 109.514 40.336C109.514 44.6777 106.258 48.6701 100.765 48.6701C95.2718 48.6701 92.0162 44.6477 92.0162 40.336ZM95.9431 40.336C95.9431 42.923 97.6677 45.3163 100.765 45.3163C103.862 45.3163 105.587 42.923 105.587 40.336C105.587 37.749 103.862 35.323 100.765 35.323C97.6677 35.323 95.9431 37.749 95.9431 40.336Z" fill="#FFEBD9"/>
<path d="M114.32 25.9383H118.342V32.3567H122.46V35.6123H118.342V42.923C118.342 44.5822 118.981 45.3163 120.544 45.3163C121.216 45.3163 121.759 45.188 122.299 45.0298V48.2553C121.789 48.4464 120.511 48.6701 119.488 48.6701C115.719 48.6701 114.317 46.4024 114.317 42.732V35.6123H111.348V32.354H114.317V25.9356L114.32 25.9383Z" fill="#FFEBD9"/>
<path d="M128.526 41.6759C128.783 44.0692 130.314 45.6984 133.155 45.6984C135.103 45.6984 136.604 44.836 137.368 43.6244H141.104C140.018 46.4652 136.953 48.6701 133.155 48.6701C127.727 48.6701 124.567 45.0625 124.567 40.306C124.567 35.5495 128.046 31.9719 132.963 31.9719C137.881 31.9719 141.328 35.4513 141.328 40.3688V41.6787H128.526V41.6759ZM128.494 39.0262H137.496C137.24 36.5674 135.613 34.8427 133.026 34.8427C130.439 34.8427 128.813 36.4392 128.494 39.0262Z" fill="#FFEBD9"/>
<path d="M153.668 36.2181H152.805C149.58 36.2181 148.082 38.1011 148.082 41.1984V48.2854H144.059V32.354H147.953V35.8033C148.72 33.2818 150.86 32.2284 153.668 32.2284V36.2181Z" fill="#FFEBD9"/>
</svg>
