<svg width="1568" height="1000" viewBox="0 0 1568 1000" fill="none" xmlns="http://www.w3.org/2000/svg">
<mask id="mask0_53_14176" style="mask-type:alpha" maskUnits="userSpaceOnUse" x="0" y="0" width="1568" height="1000">
<rect width="1568" height="1000" fill="#24502A"/>
</mask>
<g mask="url(#mask0_53_14176)">
<path d="M1554.25 591.22C1561.94 600.43 1566.64 612.22 1566.64 625.15C1566.64 653.97 1543.38 677.5 1514.76 677.83C1519.66 700.36 1532.65 719.77 1550.54 733.02C1554.38 740.77 1556.44 749.45 1556.44 758.73C1556.44 778.48 1546.63 795.97 1531.53 806.5C1539.68 815.38 1544.52 827.17 1544.52 840.16C1544.52 848.91 1538.36 864.41 1538.36 864.41C1507.95 872.16 1485.48 899.66 1485.48 932.53C1485.48 977.79 1448.64 1014.56 1403.32 1014.56C1397.82 1014.56 1392.06 1013.96 1386.82 1012.9C1321.09 999.85 1255.62 996.93 1192.15 1003.23L1064.07 1261.58L703.81 900.99C609.32 945.91 492.97 929.28 414.85 851.16C290.73 727.06 214 555.58 214 366.2C214 -36 540 -362 942.14 -362C1167.03 -362 1368.79 -258.9 1502.31 -98.68C1567.97 -25.13 1564.2 87.78 1491.31 154.63C1466.53 177.36 1437.11 191.8 1406.5 198.23C1450.3 243.15 1477.33 304.51 1477.33 372.23C1477.33 402.31 1472.96 431.27 1464.61 458.63C1469.71 487.65 1484.49 515.48 1505.82 538.81L1554.26 591.22H1554.25Z" fill="#E8B933"/>
<path d="M1332.25 591.22C1339.94 600.43 1344.64 612.22 1344.64 625.15C1344.64 653.97 1321.38 677.5 1292.76 677.83C1297.66 700.36 1310.65 719.77 1328.54 733.02C1332.38 740.77 1334.44 749.45 1334.44 758.73C1334.44 778.48 1324.63 795.97 1309.53 806.5C1317.68 815.38 1322.52 827.17 1322.52 840.16C1322.52 848.91 1316.36 864.41 1316.36 864.41C1285.95 872.16 1263.48 899.66 1263.48 932.53C1263.48 977.79 1226.64 1014.56 1181.32 1014.56C1175.82 1014.56 1170.06 1013.96 1164.82 1012.9C1099.09 999.85 1033.62 996.93 970.15 1003.23L842.07 1261.58L481.81 900.99C387.32 945.91 270.97 929.28 192.85 851.16C68.73 727.06 -8 555.58 -8 366.2C-8 -36 318 -362 720.14 -362C945.03 -362 1146.79 -258.9 1280.31 -98.68C1345.97 -25.13 1342.2 87.78 1269.31 154.63C1244.53 177.36 1215.11 191.8 1184.5 198.23C1228.3 243.15 1255.33 304.51 1255.33 372.23C1255.33 402.31 1250.96 431.27 1242.61 458.63C1247.71 487.65 1262.49 515.48 1283.82 538.81L1332.26 591.22H1332.25Z" fill="#85276E"/>
<path d="M1110.25 591.22C1117.94 600.43 1122.64 612.22 1122.64 625.15C1122.64 653.97 1099.38 677.5 1070.76 677.83C1075.66 700.36 1088.65 719.77 1106.54 733.02C1110.38 740.77 1112.44 749.45 1112.44 758.73C1112.44 778.48 1102.63 795.97 1087.53 806.5C1095.68 815.38 1100.52 827.17 1100.52 840.16C1100.52 848.91 1094.36 864.41 1094.36 864.41C1063.95 872.16 1041.48 899.66 1041.48 932.53C1041.48 977.79 1004.64 1014.56 959.32 1014.56C953.82 1014.56 948.06 1013.96 942.82 1012.9C877.09 999.85 811.62 996.93 748.15 1003.23L620.07 1261.58L259.81 900.99C165.32 945.91 48.97 929.28 -29.15 851.16C-153.27 727.06 -230 555.58 -230 366.2C-230 -36 96 -362 498.14 -362C723.03 -362 924.79 -258.9 1058.31 -98.68C1123.97 -25.13 1120.2 87.78 1047.31 154.63C1022.53 177.36 993.11 191.8 962.5 198.23C1006.3 243.15 1033.33 304.51 1033.33 372.23C1033.33 402.31 1028.96 431.27 1020.61 458.63C1025.71 487.65 1040.49 515.48 1061.82 538.81L1110.26 591.22H1110.25Z" fill="#E66C31"/>
<path d="M889.25 591.22C896.94 600.43 901.64 612.22 901.64 625.15C901.64 653.97 878.38 677.5 849.76 677.83C854.66 700.36 867.65 719.77 885.54 733.02C889.38 740.77 891.44 749.45 891.44 758.73C891.44 778.48 881.63 795.97 866.53 806.5C874.68 815.38 879.52 827.17 879.52 840.16C879.52 848.91 873.36 864.41 873.36 864.41C842.95 872.16 820.48 899.66 820.48 932.53C820.48 977.79 783.64 1014.56 738.32 1014.56C732.82 1014.56 727.06 1013.96 721.82 1012.9C656.09 999.85 590.62 996.93 527.15 1003.23L399.07 1261.58L38.81 900.99C-55.68 945.91 -172.03 929.28 -250.15 851.16C-374.27 727.06 -451 555.58 -451 366.2C-451 -36 -125 -362 277.14 -362C502.03 -362 703.79 -258.9 837.31 -98.68C902.97 -25.13 899.2 87.78 826.31 154.63C801.53 177.36 772.11 191.8 741.5 198.23C785.3 243.15 812.33 304.51 812.33 372.23C812.33 402.31 807.96 431.27 799.61 458.63C804.71 487.65 819.49 515.48 840.82 538.81L889.26 591.22H889.25Z" fill="#56B5B5"/>
<path d="M668.25 591.22C675.94 600.43 680.64 612.22 680.64 625.15C680.64 653.97 657.38 677.5 628.76 677.83C633.66 700.36 646.65 719.77 664.54 733.02C668.38 740.77 670.44 749.45 670.44 758.73C670.44 778.48 660.63 795.97 645.53 806.5C653.68 815.38 658.52 827.17 658.52 840.16C658.52 848.91 652.36 864.41 652.36 864.41C621.95 872.16 599.48 899.66 599.48 932.53C599.48 977.79 562.64 1014.56 517.32 1014.56C511.82 1014.56 506.06 1013.96 500.82 1012.9C435.09 999.85 369.62 996.93 306.15 1003.23L178.07 1261.58L-182.19 900.99C-276.68 945.91 -393.03 929.28 -471.15 851.16C-595.27 727.06 -672 555.58 -672 366.2C-672 -36 -346 -362 56.14 -362C281.03 -362 482.79 -258.9 616.31 -98.68C681.97 -25.13 678.2 87.78 605.31 154.63C580.53 177.36 551.11 191.8 520.5 198.23C564.3 243.15 591.33 304.51 591.33 372.23C591.33 402.31 586.96 431.27 578.61 458.63C583.71 487.65 598.49 515.48 619.82 538.81L668.26 591.22H668.25Z" fill="#210D34"/>
</g>
</svg>
