<svg width="176" height="226" viewBox="0 0 176 226" fill="none" xmlns="http://www.w3.org/2000/svg">
<path d="M172.479 124.757C173.489 126.178 174.088 127.928 174.088 129.831C174.088 133.495 171.821 136.643 168.615 137.935L162.943 140.342C163.037 144.817 165.174 148.799 168.474 151.359C167.124 154.777 164.563 157.596 161.334 159.276C162.978 161.719 163.941 164.655 163.941 167.803C163.941 168.355 163.918 168.907 163.859 169.435C158.962 172.113 155.662 177.222 155.662 183.189C155.497 193.712 149.52 198.363 141.933 198.363C140.665 198.363 139.432 198.199 138.258 197.87C127.524 194.887 117.953 189.778 109.873 183.13L85.7164 224.99L17.8381 157.056C17.8381 157.056 19.3296 148.916 19.3296 141.317C19.3296 127.094 15.7007 113.74 9.54707 101.959C0.915475 85.4574 -0.810844 65.4554 6.02397 46.5693C19.0712 10.406 58.9644 -8.32753 95.1349 4.73307L126.232 15.8909C145.057 22.9615 159.044 39.9098 161.898 60.4285L163.295 76.308C164.317 78.9976 164.869 81.9221 164.869 84.9876C164.869 89.7679 163.507 94.2193 161.146 97.9895C159.138 101.196 159.619 105.283 161.956 108.02C163.812 110.11 165.327 112.377 166.536 114.762L172.467 124.757H172.479Z" stroke="#E8B933" stroke-width="2" stroke-miterlimit="10"/>
</svg>
