<svg width="189" height="226" viewBox="0 0 189 226" fill="none" xmlns="http://www.w3.org/2000/svg">
<path d="M186.698 132.344C187.755 133.613 188.413 135.245 188.413 137.031C188.413 141.012 185.195 144.266 181.238 144.313C181.919 147.425 183.716 150.115 186.182 151.947C186.71 153.016 186.992 154.214 186.992 155.506C186.992 158.231 185.641 160.65 183.551 162.107C184.678 163.328 185.348 164.961 185.348 166.758C185.348 167.967 184.491 170.105 184.491 170.105C180.286 171.174 177.186 174.979 177.186 179.525C177.186 185.785 172.089 190.859 165.83 190.859C165.066 190.859 164.268 190.776 163.552 190.636C154.462 188.827 145.419 188.427 136.647 189.297L118.949 225.002L69.1561 175.155C56.0971 181.369 40.0201 179.067 29.2159 168.273C12.0584 151.113 1.45386 127.411 1.45386 101.243C1.45386 45.6535 46.5142 0.587402 102.085 0.587402C133.171 0.587402 161.05 14.8343 179.499 36.9856C188.577 47.1569 188.049 62.7544 177.984 71.9979C174.555 75.1338 170.492 77.1305 166.264 78.0231C172.312 84.2363 176.059 92.7163 176.059 102.077C176.059 106.235 175.46 110.24 174.297 114.022C175.002 118.039 177.045 121.879 179.993 125.109L186.687 132.356L186.698 132.344Z" stroke="#E8B933" stroke-width="2" stroke-miterlimit="10"/>
</svg>
