<svg width="161" height="193" viewBox="0 0 161 193" fill="none" xmlns="http://www.w3.org/2000/svg">
<path d="M158.23 112.68C159.13 113.76 159.69 115.15 159.69 116.67C159.69 120.06 156.95 122.83 153.58 122.87C154.16 125.52 155.69 127.81 157.79 129.37C158.24 130.28 158.48 131.3 158.48 132.4C158.48 134.72 157.33 136.78 155.55 138.02C156.51 139.06 157.08 140.45 157.08 141.98C157.08 143.01 156.35 144.83 156.35 144.83C152.77 145.74 150.13 148.98 150.13 152.85C150.13 158.18 145.79 162.5 140.46 162.5C139.81 162.5 139.13 162.43 138.52 162.31C130.78 160.77 123.08 160.43 115.61 161.17L100.54 191.57L58.14 149.13C47.02 154.42 33.33 152.46 24.13 143.27C9.53 128.67 0.5 108.49 0.5 86.2C0.5 38.87 38.87 0.5 86.19 0.5C112.66 0.5 136.4 12.63 152.11 31.49C159.84 40.15 159.39 53.43 150.82 61.3C147.9 63.97 144.44 65.67 140.84 66.43C145.99 71.72 149.18 78.94 149.18 86.91C149.18 90.45 148.67 93.86 147.68 97.08C148.28 100.5 150.02 103.77 152.53 106.52L158.23 112.69V112.68Z" stroke="#E8B933" stroke-miterlimit="10"/>
</svg>
