<svg width="149" height="193" viewBox="0 0 149 193" fill="none" xmlns="http://www.w3.org/2000/svg">
<path d="M146.61 106.22C147.47 107.43 147.98 108.92 147.98 110.54C147.98 113.66 146.05 116.34 143.32 117.44L138.49 119.49C138.57 123.3 140.39 126.69 143.2 128.87C142.05 131.78 139.87 134.18 137.12 135.61C138.52 137.69 139.34 140.19 139.34 142.87C139.34 143.34 139.32 143.81 139.27 144.26C135.1 146.54 132.29 150.89 132.29 155.97C132.15 164.93 127.06 168.89 120.6 168.89C119.52 168.89 118.47 168.75 117.47 168.47C108.33 165.93 100.18 161.58 93.3 155.92L72.73 191.56L14.93 133.72C14.93 133.72 16.2 126.79 16.2 120.32C16.2 108.21 13.11 96.84 7.86999 86.81C0.519989 72.76 -0.950011 55.73 4.86999 39.65C15.98 8.86 49.95 -7.09 80.75 4.03L107.23 13.53C123.26 19.55 135.17 33.98 137.6 51.45L138.79 64.97C139.66 67.26 140.13 69.75 140.13 72.36C140.13 76.43 138.97 80.22 136.96 83.43C135.25 86.16 135.66 89.64 137.65 91.97C139.23 93.75 140.52 95.68 141.55 97.71L146.6 106.22H146.61Z" stroke="#E8B933" stroke-miterlimit="10"/>
</svg>
